<svg width="1512" height="90" viewBox="0 0 1512 90" fill="none" xmlns="http://www.w3.org/2000/svg">
<path d="M0 49.1021H1512" stroke="black"/>
<rect x="600.372" y="9.60205" width="319.128" height="79" stroke="#C71D1D"/>
<rect x="592.5" y="0.602051" width="319.128" height="79" fill="#F3F0F1" stroke="black"/>
<path d="M696.337 48.1721C695.497 48.1721 694.708 48.0251 693.97 47.7311C693.238 47.4311 692.593 46.9931 692.035 46.4171C691.483 45.8411 691.051 45.1361 690.739 44.3021C690.427 43.4621 690.271 42.5021 690.271 41.4221C690.271 40.0061 690.535 38.7971 691.063 37.7951C691.591 36.7871 692.314 36.0161 693.232 35.4821C694.15 34.9421 695.185 34.6721 696.337 34.6721C697.933 34.6721 699.196 35.0441 700.126 35.7881C701.062 36.5261 701.695 37.5641 702.025 38.9021L699.811 39.2531C699.565 38.4851 699.163 37.8731 698.605 37.4171C698.047 36.9551 697.336 36.7241 696.472 36.7241C695.602 36.7121 694.879 36.9011 694.303 37.2911C693.727 37.6811 693.292 38.2301 692.998 38.9381C692.71 39.6461 692.566 40.4741 692.566 41.4221C692.566 42.3701 692.71 43.1951 692.998 43.8971C693.286 44.5931 693.718 45.1361 694.294 45.5261C694.876 45.9161 695.602 46.1171 696.472 46.1291C697.126 46.1351 697.699 46.0181 698.191 45.7781C698.683 45.5321 699.085 45.1631 699.397 44.6711C699.709 44.1731 699.919 43.5521 700.027 42.8081H697.741V41.1071H702.331C702.343 41.2031 702.352 41.3441 702.358 41.5301C702.364 41.7161 702.367 41.8271 702.367 41.8631C702.367 43.0871 702.124 44.1761 701.638 45.1301C701.158 46.0781 700.468 46.8221 699.568 47.3621C698.668 47.9021 697.591 48.1721 696.337 48.1721ZM711.096 48.1721C709.8 48.1721 708.69 47.8901 707.766 47.3261C706.842 46.7561 706.131 45.9641 705.633 44.9501C705.141 43.9361 704.895 42.7601 704.895 41.4221C704.895 40.0841 705.141 38.9081 705.633 37.8941C706.131 36.8801 706.842 36.0911 707.766 35.5271C708.69 34.9571 709.8 34.6721 711.096 34.6721C712.392 34.6721 713.502 34.9571 714.426 35.5271C715.356 36.0911 716.067 36.8801 716.559 37.8941C717.057 38.9081 717.306 40.0841 717.306 41.4221C717.306 42.7601 717.057 43.9361 716.559 44.9501C716.067 45.9641 715.356 46.7561 714.426 47.3261C713.502 47.8901 712.392 48.1721 711.096 48.1721ZM711.096 46.1291C711.966 46.1351 712.689 45.9431 713.265 45.5531C713.847 45.1631 714.282 44.6141 714.57 43.9061C714.864 43.1981 715.011 42.3701 715.011 41.4221C715.011 40.4741 714.864 39.6521 714.57 38.9561C714.282 38.2541 713.847 37.7081 713.265 37.3181C712.689 36.9281 711.966 36.7271 711.096 36.7151C710.226 36.7091 709.503 36.9011 708.927 37.2911C708.351 37.6811 707.916 38.2301 707.622 38.9381C707.334 39.6461 707.19 40.4741 707.19 41.4221C707.19 42.3701 707.334 43.1951 707.622 43.8971C707.91 44.5931 708.342 45.1361 708.918 45.5261C709.5 45.9161 710.226 46.1171 711.096 46.1291ZM728.695 47.9021V36.9761H724.501V34.9421H735.058V36.9761H730.864V47.9021H728.695ZM743.418 48.1721C742.122 48.1721 741.012 47.8901 740.088 47.3261C739.164 46.7561 738.453 45.9641 737.955 44.9501C737.463 43.9361 737.217 42.7601 737.217 41.4221C737.217 40.0841 737.463 38.9081 737.955 37.8941C738.453 36.8801 739.164 36.0911 740.088 35.5271C741.012 34.9571 742.122 34.6721 743.418 34.6721C744.714 34.6721 745.824 34.9571 746.748 35.5271C747.678 36.0911 748.389 36.8801 748.881 37.8941C749.379 38.9081 749.628 40.0841 749.628 41.4221C749.628 42.7601 749.379 43.9361 748.881 44.9501C748.389 45.9641 747.678 46.7561 746.748 47.3261C745.824 47.8901 744.714 48.1721 743.418 48.1721ZM743.418 46.1291C744.288 46.1351 745.011 45.9431 745.587 45.5531C746.169 45.1631 746.604 44.6141 746.892 43.9061C747.186 43.1981 747.333 42.3701 747.333 41.4221C747.333 40.4741 747.186 39.6521 746.892 38.9561C746.604 38.2541 746.169 37.7081 745.587 37.3181C745.011 36.9281 744.288 36.7271 743.418 36.7151C742.548 36.7091 741.825 36.9011 741.249 37.2911C740.673 37.6811 740.238 38.2301 739.944 38.9381C739.656 39.6461 739.512 40.4741 739.512 41.4221C739.512 42.3701 739.656 43.1951 739.944 43.8971C740.232 44.5931 740.664 45.1361 741.24 45.5261C741.822 45.9161 742.548 46.1171 743.418 46.1291ZM761.017 47.9021V36.9761H756.823V34.9421H767.38V36.9761H763.186V47.9021H761.017ZM775.74 48.1721C774.444 48.1721 773.334 47.8901 772.41 47.3261C771.486 46.7561 770.775 45.9641 770.277 44.9501C769.785 43.9361 769.539 42.7601 769.539 41.4221C769.539 40.0841 769.785 38.9081 770.277 37.8941C770.775 36.8801 771.486 36.0911 772.41 35.5271C773.334 34.9571 774.444 34.6721 775.74 34.6721C777.036 34.6721 778.146 34.9571 779.07 35.5271C780 36.0911 780.711 36.8801 781.203 37.8941C781.701 38.9081 781.95 40.0841 781.95 41.4221C781.95 42.7601 781.701 43.9361 781.203 44.9501C780.711 45.9641 780 46.7561 779.07 47.3261C778.146 47.8901 777.036 48.1721 775.74 48.1721ZM775.74 46.1291C776.61 46.1351 777.333 45.9431 777.909 45.5531C778.491 45.1631 778.926 44.6141 779.214 43.9061C779.508 43.1981 779.655 42.3701 779.655 41.4221C779.655 40.4741 779.508 39.6521 779.214 38.9561C778.926 38.2541 778.491 37.7081 777.909 37.3181C777.333 36.9281 776.61 36.7271 775.74 36.7151C774.87 36.7091 774.147 36.9011 773.571 37.2911C772.995 37.6811 772.56 38.2301 772.266 38.9381C771.978 39.6461 771.834 40.4741 771.834 41.4221C771.834 42.3701 771.978 43.1951 772.266 43.8971C772.554 44.5931 772.986 45.1361 773.562 45.5261C774.144 45.9161 774.87 46.1171 775.74 46.1291ZM785.181 47.9021V34.9421H790.536C790.662 34.9421 790.824 34.9481 791.022 34.9601C791.22 34.9661 791.403 34.9841 791.571 35.0141C792.321 35.1281 792.939 35.3771 793.425 35.7611C793.917 36.1451 794.28 36.6311 794.514 37.2191C794.754 37.8011 794.874 38.4491 794.874 39.1631C794.874 39.8711 794.754 40.5191 794.514 41.1071C794.274 41.6891 793.908 42.1721 793.416 42.5561C792.93 42.9401 792.315 43.1891 791.571 43.3031C791.403 43.3271 791.217 43.3451 791.013 43.3571C790.815 43.3691 790.656 43.3751 790.536 43.3751H787.35V47.9021H785.181ZM787.35 41.3501H790.446C790.566 41.3501 790.701 41.3441 790.851 41.3321C791.001 41.3201 791.139 41.2961 791.265 41.2601C791.625 41.1701 791.907 41.0111 792.111 40.7831C792.321 40.5551 792.468 40.2971 792.552 40.0091C792.642 39.7211 792.687 39.4391 792.687 39.1631C792.687 38.8871 792.642 38.6051 792.552 38.3171C792.468 38.0231 792.321 37.7621 792.111 37.5341C791.907 37.3061 791.625 37.1471 791.265 37.0571C791.139 37.0211 791.001 37.0001 790.851 36.9941C790.701 36.9821 790.566 36.9761 790.446 36.9761H787.35V41.3501Z" fill="#0A0A0A"/>
<path d="M850 47.1019L861.556 35.5464" stroke="black" stroke-width="2"/>
<path d="M854.444 35.1021H862V42.2132" stroke="black" stroke-width="2"/>
</svg>
